<svg width="128" height="128" xmlns="http://www.w3.org/2000/svg">

 <g>
  <title>background</title>
  <rect fill="none" id="canvas_background" height="402" width="582" y="-1" x="-1"/>
 </g>
 <g>
  <title>Layer 1</title>
  <path id="svg_1" fill="#ffffff" d="m68.406,8l38.945,98.035c1.125,2.762 2.344,4.633 3.652,5.617c1.316,0.988 3.047,1.477 5.203,1.477l3.794,0l0,6.871l-48.73,0l0,-6.871l4.563,0c3.602,0 6.082,-0.414 7.441,-1.258c1.359,-0.836 2.039,-1.941 2.039,-3.32c0,-1.082 -0.281,-2.34 -0.844,-3.77l-8.008,-20.246l-38.883,0l-3.695,9.234c-1.543,3.844 -2.316,6.703 -2.316,8.574c0,3.203 1.125,5.801 3.375,7.793c2.254,1.992 5.324,2.992 9.219,2.992l3.305,0l0,6.872l-39.466,0l0,-6.871l2.254,0c2.539,0 4.77,-0.836 6.695,-2.512c2.727,-2.363 4.836,-5.391 6.34,-9.086l37.234,-93.531l7.883,0m-27.929,69.301l33.117,0l-16.477,-41.641l-16.64,41.641m27.929,-77.301l-7.883,0c-3.277,0 -6.223,1.996 -7.434,5.043l-37.234,93.531c-1.008,2.48 -2.375,4.461 -4.145,5.996c-0.484,0.422 -0.848,0.559 -1.457,0.559l-2.253,0c-4.418,0 -8,3.582 -8,8l0,6.871c0,4.418 3.582,8 8,8l39.465,0c4.418,0 8,-3.582 8,-8l0,-6.871c0,-4.418 -3.582,-8 -8,-8l-3.305,0c-1.281,0 -3,-0.172 -3.922,-0.984c-0.379,-0.336 -0.672,-0.688 -0.672,-1.801c0.004,-0.031 0.078,-1.449 1.742,-5.594l1.684,-4.215l28.031,0l4.98,12.594c-0.059,0 -0.113,0 -0.172,0l-4.561,0c-4.418,0 -8,3.582 -8,8l0,6.871c0,4.418 3.582,8 8,8l48.73,0c4.418,0 8,-3.582 8,-8l0,-6.871c0,-4.418 -3.582,-8 -8,-8l-3.793,0c-0.168,0 -0.305,-0.008 -0.414,-0.016c-0.223,-0.348 -0.586,-0.996 -1.031,-2.098l-38.922,-97.968c-1.207,-3.047 -4.156,-5.047 -7.434,-5.047l0,0zm-16.117,69.301l4.793,-11.992l4.742,11.992l-9.535,0l0,0z"/>
 </g>
</svg>